<svg id="visual" viewBox="0 0 960 540" width="960" height="540" xmlns="http://www.w3.org/2000/svg" xmlns:xlink="http://www.w3.org/1999/xlink" version="1.1"><path d="M0 71L14.5 63.8C29 56.7 58 42.3 87.2 37C116.3 31.7 145.7 35.3 174.8 42.5C204 49.7 233 60.3 262 63.8C291 67.3 320 63.7 349 59.2C378 54.7 407 49.3 436.2 43.2C465.3 37 494.7 30 523.8 30C553 30 582 37 611 45C640 53 669 62 698 64.7C727 67.3 756 63.7 785.2 59.2C814.3 54.7 843.7 49.3 872.8 48.5C902 47.7 931 51.3 945.5 53.2L960 55L960 0L945.5 0C931 0 902 0 872.8 0C843.7 0 814.3 0 785.2 0C756 0 727 0 698 0C669 0 640 0 611 0C582 0 553 0 523.8 0C494.7 0 465.3 0 436.2 0C407 0 378 0 349 0C320 0 291 0 262 0C233 0 204 0 174.8 0C145.7 0 116.3 0 87.2 0C58 0 29 0 14.5 0L0 0Z" fill="#004cbb"></path><path d="M0 114L14.5 103.3C29 92.7 58 71.3 87.2 62.3C116.3 53.3 145.7 56.7 174.8 63.8C204 71 233 82 262 88.3C291 94.7 320 96.3 349 91.8C378 87.3 407 76.7 436.2 72.2C465.3 67.7 494.7 69.3 523.8 70.2C553 71 582 71 611 74.7C640 78.3 669 85.7 698 87.5C727 89.3 756 85.7 785.2 82C814.3 78.3 843.7 74.7 872.8 72.8C902 71 931 71 945.5 71L960 71L960 53L945.5 51.2C931 49.3 902 45.7 872.8 46.5C843.7 47.3 814.3 52.7 785.2 57.2C756 61.7 727 65.3 698 62.7C669 60 640 51 611 43C582 35 553 28 523.8 28C494.7 28 465.3 35 436.2 41.2C407 47.3 378 52.7 349 57.2C320 61.7 291 65.3 262 61.8C233 58.3 204 47.7 174.8 40.5C145.7 33.3 116.3 29.7 87.2 35C58 40.3 29 54.7 14.5 61.8L0 69Z" fill="#0053ce"></path><path d="M0 136L14.5 129.7C29 123.3 58 110.7 87.2 108.8C116.3 107 145.7 116 174.8 119.7C204 123.3 233 121.7 262 128C291 134.3 320 148.7 349 147.7C378 146.7 407 130.3 436.2 119.5C465.3 108.7 494.7 103.3 523.8 99.8C553 96.3 582 94.7 611 104.7C640 114.7 669 136.3 698 145.3C727 154.3 756 150.7 785.2 146.2C814.3 141.7 843.7 136.3 872.8 131.8C902 127.3 931 123.7 945.5 121.8L960 120L960 69L945.5 69C931 69 902 69 872.8 70.8C843.7 72.7 814.3 76.3 785.2 80C756 83.7 727 87.3 698 85.5C669 83.7 640 76.3 611 72.7C582 69 553 69 523.8 68.2C494.7 67.3 465.3 65.7 436.2 70.2C407 74.7 378 85.3 349 89.8C320 94.3 291 92.7 262 86.3C233 80 204 69 174.8 61.8C145.7 54.7 116.3 51.3 87.2 60.3C58 69.3 29 90.7 14.5 101.3L0 112Z" fill="#005be1"></path><path d="M0 212L14.5 212.8C29 213.7 58 215.3 87.2 220.7C116.3 226 145.7 235 174.8 245.8C204 256.7 233 269.3 262 282C291 294.7 320 307.3 349 310C378 312.7 407 305.3 436.2 296.3C465.3 287.3 494.7 276.7 523.8 255C553 233.3 582 200.7 611 210.5C640 220.3 669 272.7 698 292.5C727 312.3 756 299.7 785.2 288C814.3 276.3 843.7 265.7 872.8 263.8C902 262 931 269 945.5 272.5L960 276L960 118L945.5 119.8C931 121.7 902 125.3 872.8 129.8C843.7 134.3 814.3 139.7 785.2 144.2C756 148.7 727 152.3 698 143.3C669 134.3 640 112.7 611 102.7C582 92.7 553 94.3 523.8 97.8C494.7 101.3 465.3 106.7 436.2 117.5C407 128.3 378 144.7 349 145.7C320 146.7 291 132.3 262 126C233 119.7 204 121.3 174.8 117.7C145.7 114 116.3 105 87.2 106.8C58 108.7 29 121.3 14.5 127.7L0 134Z" fill="#0062f5"></path><path d="M0 282L14.5 282.8C29 283.7 58 285.3 87.2 285.3C116.3 285.3 145.7 283.7 174.8 289.2C204 294.7 233 307.3 262 319.8C291 332.3 320 344.7 349 352.7C378 360.7 407 364.3 436.2 364.3C465.3 364.3 494.7 360.7 523.8 334.7C553 308.7 582 260.3 611 260.3C640 260.3 669 308.7 698 333.8C727 359 756 361 785.2 348.5C814.3 336 843.7 309 872.8 300C902 291 931 300 945.5 304.5L960 309L960 274L945.5 270.5C931 267 902 260 872.8 261.8C843.7 263.7 814.3 274.3 785.2 286C756 297.7 727 310.3 698 290.5C669 270.7 640 218.3 611 208.5C582 198.7 553 231.3 523.8 253C494.7 274.7 465.3 285.3 436.2 294.3C407 303.3 378 310.7 349 308C320 305.3 291 292.7 262 280C233 267.3 204 254.7 174.8 243.8C145.7 233 116.3 224 87.2 218.7C58 213.3 29 211.7 14.5 210.8L0 210Z" fill="#196eff"></path><path d="M0 330L14.5 329.2C29 328.3 58 326.7 87.2 325.8C116.3 325 145.7 325 174.8 332.2C204 339.3 233 353.7 262 361.8C291 370 320 372 349 376.5C378 381 407 388 436.2 391.5C465.3 395 494.7 395 523.8 369C553 343 582 291 611 290.2C640 289.3 669 339.7 698 363.8C727 388 756 386 785.2 372.5C814.3 359 843.7 334 872.8 328.7C902 323.3 931 337.7 945.5 344.8L960 352L960 307L945.5 302.5C931 298 902 289 872.8 298C843.7 307 814.3 334 785.2 346.5C756 359 727 357 698 331.8C669 306.7 640 258.3 611 258.3C582 258.3 553 306.7 523.8 332.7C494.7 358.7 465.3 362.3 436.2 362.3C407 362.3 378 358.7 349 350.7C320 342.7 291 330.3 262 317.8C233 305.3 204 292.7 174.8 287.2C145.7 281.7 116.3 283.3 87.2 283.3C58 283.3 29 281.7 14.5 280.8L0 280Z" fill="#367cff"></path><path d="M0 455L14.5 457.7C29 460.3 58 465.7 87.2 465.7C116.3 465.7 145.7 460.3 174.8 454C204 447.7 233 440.3 262 438.5C291 436.7 320 440.3 349 450.2C378 460 407 476 436.2 483.2C465.3 490.3 494.7 488.7 523.8 485.2C553 481.7 582 476.3 611 471C640 465.7 669 460.3 698 463.8C727 467.3 756 479.7 785.2 481.3C814.3 483 843.7 474 872.8 468.7C902 463.3 931 461.7 945.5 460.8L960 460L960 350L945.5 342.8C931 335.7 902 321.3 872.8 326.7C843.7 332 814.3 357 785.2 370.5C756 384 727 386 698 361.8C669 337.7 640 287.3 611 288.2C582 289 553 341 523.8 367C494.7 393 465.3 393 436.2 389.5C407 386 378 379 349 374.5C320 370 291 368 262 359.8C233 351.7 204 337.3 174.8 330.2C145.7 323 116.3 323 87.2 323.8C58 324.7 29 326.3 14.5 327.2L0 328Z" fill="#4c8aff"></path><path d="M0 541L14.5 541C29 541 58 541 87.2 541C116.3 541 145.7 541 174.8 541C204 541 233 541 262 541C291 541 320 541 349 541C378 541 407 541 436.2 541C465.3 541 494.7 541 523.8 541C553 541 582 541 611 541C640 541 669 541 698 541C727 541 756 541 785.2 541C814.3 541 843.7 541 872.8 541C902 541 931 541 945.5 541L960 541L960 458L945.5 458.8C931 459.7 902 461.3 872.8 466.7C843.7 472 814.3 481 785.2 479.3C756 477.7 727 465.3 698 461.8C669 458.3 640 463.7 611 469C582 474.3 553 479.7 523.8 483.2C494.7 486.7 465.3 488.3 436.2 481.2C407 474 378 458 349 448.2C320 438.3 291 434.7 262 436.5C233 438.3 204 445.7 174.8 452C145.7 458.3 116.3 463.7 87.2 463.7C58 463.7 29 458.3 14.5 455.7L0 453Z" fill="#6198ff"></path></svg>